<svg height="512pt" viewBox="0 -45 512 512" width="512pt" xmlns="http://www.w3.org/2000/svg"><path d="m497 64.882812h-227.28125l-250.988281-64.410156c-4.496094-1.15625-9.261719-.164062-12.925781 2.675782-3.660157 2.84375-5.804688 7.21875-5.804688 11.851562v391.625c0 4.636719 2.144531 9.011719 5.804688 11.851562 2.660156 2.066407 5.902343 3.148438 9.195312 3.148438 1.246094 0 2.496094-.152344 3.730469-.46875l250.988281-64.410156h227.28125c8.285156 0 15-6.71875 15-15v-261.863282c0-8.285156-6.714844-15-15-15zm-467-30.546874 222.824219 57.183593v238.585938l-222.824219 57.183593zm332.011719 292.410156v-35.921875c6.863281-1.375 12.03125-7.433594 12.03125-14.703125 0-7.265625-5.167969-13.324219-12.03125-14.703125v-31.070313h40.800781v96.398438zm119.988281 0h-49.1875v-111.398438c0-8.28125-6.71875-15-15-15h-70.800781c-8.28125 0-15 6.71875-15 15v111.398438h-49.1875v-231.863282h199.175781zm0 0"/><path d="m204.1875 140.15625-105.917969-23.265625c-4.433593-.972656-9.078125.113281-12.621093 2.960937-3.539063 2.847657-5.597657 7.148438-5.597657 11.691407v158.542969c0 4.542968 2.058594 8.839843 5.597657 11.6875 2.691406 2.164062 6.015624 3.3125 9.402343 3.3125 1.070313 0 2.148438-.117188 3.21875-.351563l105.917969-23.265625c6.878906-1.507812 11.78125-7.605469 11.78125-14.648438v-112.011718c0-7.046875-4.902344-13.140625-11.78125-14.652344zm-94.136719 10.039062 22.957031 5.042969v42.484375c-4.125 2.675782-6.859374 7.308594-6.859374 12.589844s2.734374 9.917969 6.859374 12.589844v43.484375l-22.957031 5.042969zm75.917969 104.5625-22.960938 5.042969v-36.898437c4.128907-2.671875 6.863282-7.308594 6.863282-12.589844 0-5.277344-2.734375-9.914062-6.863282-12.585938v-35.898437l22.960938 5.042969zm0 0"/></svg>