<?xml version="1.0" encoding="iso-8859-1"?>
<!-- Generator: Adobe Illustrator 19.0.0, SVG Export Plug-In . SVG Version: 6.00 Build 0)  -->
<svg version="1.1" id="Layer_1" xmlns="http://www.w3.org/2000/svg" xmlns:xlink="http://www.w3.org/1999/xlink" x="0px" y="0px"
	 viewBox="0 0 512.001 512.001" style="enable-background:new 0 0 512.001 512.001;" xml:space="preserve">
<g>
	<g>
		<g>
			<path d="M256.001,269.036c19.754,0,37.189-11.877,44.417-30.259c1.441-3.663,0.972-7.8-1.252-11.065
				c-2.244-3.295-5.96-5.261-9.943-5.261h-66.445c-3.982,0-7.699,1.967-9.943,5.261c-2.225,3.265-2.693,7.401-1.252,11.065
				C218.811,257.159,236.246,269.036,256.001,269.036z M283.416,238.061c-5.755,9.482-16.011,15.364-27.416,15.364
				c-11.405,0-21.66-5.882-27.416-15.364H283.416z"/>
			<path d="M509.633,488.457l-7.385-84.994c-2.975-34.239-26.987-62.985-59.748-71.529l-70.95-18.502
				c-0.393-0.176-0.797-0.333-1.221-0.443l-27.407-7.147c-2.624-0.683-5.417,0.043-7.374,1.921
				c-0.626,0.602-1.259,1.193-1.897,1.779l-20.134-10.784l-4.881-16.615c20.455-14.277,36.86-37.655,42.236-61.206
				c5.466-4.435,9.933-9.977,13.125-16.25c5.587-3.612,9.302-9.883,9.302-17.016v-18.6c0-2.884-0.615-5.624-1.706-8.109h2.858
				c8.992,0,16.307-7.315,16.307-16.307v-8.953c0-8.053-5.875-14.744-13.56-16.057v-3.181c0-24.966-8.96-49.122-25.23-68.018
				c-14.68-17.05-34.458-28.86-56.212-33.738c-0.679-3.037-2.098-5.899-4.203-8.289C287.956,2.338,282.761,0,277.297,0h-42.595
				c-5.464,0-10.658,2.338-14.252,6.417c-2.106,2.389-3.525,5.251-4.204,8.289c-21.754,4.878-41.532,16.687-56.212,33.738
				c-16.27,18.896-25.23,43.052-25.23,68.018v3.181c-7.685,1.312-13.56,8.003-13.56,16.057v8.953
				c0,8.991,7.315,16.307,16.307,16.307h2.858c-1.091,2.486-1.706,5.225-1.706,8.109v18.6c0,7.134,3.714,13.405,9.301,17.016
				c3.18,6.252,7.63,11.78,13.074,16.211c5.322,23.597,21.752,47.08,42.24,61.409l-4.834,16.452L178.35,309.54
				c-0.638-0.585-1.271-1.177-1.897-1.779c-1.959-1.878-4.749-2.604-7.374-1.921l-27.407,7.147c-0.424,0.11-0.827,0.267-1.221,0.443
				L69.5,331.934c-32.762,8.544-56.773,37.289-59.748,71.529l-1.359,15.649c-0.373,4.295,2.806,8.079,7.101,8.451
				c4.283,0.382,8.078-2.806,8.45-7.101l1.359-15.649c2.406-27.676,21.749-50.894,48.137-57.775l66.902-17.447
				c8.241,11.941,18.866,25.65,26.771,35.584c5.688,7.148,10.351,12.82,12.623,15.565c1.628,1.968,2.949,3.542,3.869,4.627
				c2.006,2.361,3.738,4.4,7.395,4.4c1.477,0,2.892-0.416,4.103-1.166L256,359.222l60.896,29.379
				c1.179,0.729,2.551,1.144,3.986,1.166c0.048,0,0.096,0.001,0.143,0.001c3.633,0,5.448-2.138,7.37-4.4
				c0.92-1.083,2.24-2.658,3.869-4.626c2.273-2.745,6.935-8.419,12.622-15.565c7.906-9.934,18.531-23.644,26.774-35.585
				l66.902,17.447c26.386,6.881,45.73,30.099,48.137,57.774l7.385,84.995c0.149,1.709-0.409,3.346-1.568,4.61
				c-1.159,1.264-2.743,1.962-4.458,1.962h-63.688v-78.176c0-4.31-3.495-7.805-7.805-7.805c-4.312,0-7.805,3.495-7.805,7.805v78.176
				H103.244v-78.176c0-4.31-3.494-7.805-7.805-7.805s-7.805,3.495-7.805,7.805v78.176H23.945c-1.715,0-3.299-0.696-4.458-1.962
				c-1.159-1.264-1.716-2.901-1.568-4.61l3.508-40.373c0.373-4.295-2.806-8.079-7.099-8.451c-4.289-0.374-8.079,2.805-8.451,7.099
				l-3.508,40.373c-0.525,6.031,1.521,12.05,5.613,16.511c4.092,4.462,9.91,7.022,15.965,7.022h71.293
				c0.068,0.002,0.133,0.01,0.202,0.01c0.068,0,0.134-0.008,0.202-0.01h320.719c0.068,0.002,0.133,0.01,0.202,0.01
				c0.068,0,0.134-0.008,0.202-0.01h71.293c6.054,0,11.873-2.559,15.965-7.022C508.111,500.506,510.157,494.487,509.633,488.457z
				 M357.687,187.668c0,1.905-1.153,3.542-2.796,4.262c-0.593,0.258-1.217,0.391-1.857,0.391h-0.27v-27.906h0.27
				c0.007,0,0.015,0.002,0.022,0.002c0.302,0.001,0.596,0.032,0.883,0.089c0.168,0.033,0.327,0.094,0.489,0.146
				c0.119,0.037,0.241,0.065,0.356,0.11c0.213,0.087,0.415,0.201,0.614,0.319c0.052,0.031,0.109,0.054,0.159,0.086
				c0.228,0.149,0.443,0.322,0.646,0.512c0.909,0.849,1.484,2.049,1.484,3.387V187.668z M281.865,112.217
				c0.357-0.531,0.694-1.074,1.01-1.632c0.062-0.109,0.121-0.221,0.181-0.331c0.313-0.573,0.612-1.156,0.88-1.756
				c0.008-0.019,0.018-0.036,0.026-0.054c0.273-0.611,0.513-1.239,0.736-1.875c0.043-0.122,0.087-0.244,0.128-0.366
				c0.207-0.62,0.39-1.251,0.548-1.893c0.03-0.124,0.057-0.25,0.085-0.375c0.155-0.672,0.291-1.352,0.39-2.045
				c0.006-0.041,0.011-0.081,0.017-0.121l9.016-71.261c39.097,9.868,66.703,44.821,66.703,85.952v2.932h-87.03
				c0.327-0.212,0.647-0.434,0.965-0.66c0.033-0.024,0.068-0.045,0.101-0.069c0.533-0.384,1.045-0.794,1.545-1.217
				c0.101-0.085,0.202-0.169,0.301-0.255c0.481-0.419,0.947-0.855,1.396-1.309c0.085-0.086,0.168-0.176,0.252-0.263
				c0.442-0.461,0.872-0.935,1.279-1.428c0.021-0.025,0.043-0.048,0.062-0.073c0.416-0.508,0.807-1.038,1.182-1.578
				C281.715,112.433,281.791,112.327,281.865,112.217z M232.161,16.738c0.37-0.422,1.195-1.128,2.541-1.128h42.595
				c1.347,0,2.171,0.707,2.541,1.128c0.343,0.389,0.897,1.218,0.749,2.389l-0.135,1.067v0.001l-5.349,42.271l-4.716,37.273
				c-0.516,3.482-2.975,6.319-6.211,7.519c-1.078,0.401-2.243,0.619-3.45,0.619h-9.456c-1.207,0-2.372-0.219-3.45-0.619
				c-3.234-1.201-5.695-4.037-6.21-7.519l-3.225-25.487l-6.84-54.057c0-0.001,0-0.002-0.001-0.003l-0.134-1.065
				C231.264,17.956,231.818,17.128,232.161,16.738z M159.237,192.318h-0.27c-0.64,0.002-1.264-0.131-1.858-0.39
				c-1.642-0.719-2.795-2.356-2.795-4.26v-18.6c0-1.28,0.52-2.439,1.359-3.282c0.017-0.015,0.034-0.028,0.05-0.044
				c0.024-0.023,0.052-0.04,0.076-0.062c0.203-0.189,0.418-0.362,0.646-0.512c0.052-0.034,0.11-0.057,0.164-0.089
				c0.198-0.118,0.398-0.23,0.609-0.316c0.119-0.048,0.247-0.077,0.369-0.116c0.157-0.05,0.312-0.108,0.475-0.142
				c0.292-0.058,0.595-0.092,0.904-0.092h0.27V192.318z M150.358,145.347h-12.807c-0.384,0.001-0.697-0.312-0.697-0.696v-8.953
				c0-0.384,0.313-0.696,0.697-0.696c0.887,0,1.735-0.155,2.529-0.427c0.794,0.273,1.642,0.427,2.529,0.427h40.83
				c4.312,0,7.805-3.495,7.805-7.805s-3.494-7.805-7.805-7.805h-33.025v-2.932c0-41.131,27.605-76.084,66.704-85.953l9.016,71.261
				c0.005,0.04,0.01,0.081,0.017,0.121c0.099,0.693,0.235,1.373,0.39,2.045c0.029,0.125,0.055,0.251,0.085,0.375
				c0.158,0.641,0.341,1.273,0.548,1.893c0.041,0.123,0.085,0.245,0.128,0.367c0.224,0.636,0.463,1.263,0.736,1.874
				c0.008,0.018,0.018,0.035,0.026,0.054c0.27,0.599,0.567,1.183,0.881,1.757c0.06,0.109,0.118,0.221,0.18,0.329
				c0.316,0.558,0.655,1.102,1.012,1.633c0.074,0.109,0.15,0.215,0.225,0.324c0.376,0.54,0.766,1.07,1.182,1.578
				c0.021,0.025,0.043,0.048,0.062,0.073c0.407,0.493,0.837,0.967,1.279,1.428c0.084,0.088,0.168,0.178,0.253,0.264
				c0.448,0.454,0.914,0.889,1.394,1.308c0.099,0.086,0.2,0.171,0.301,0.255c0.501,0.423,1.013,0.833,1.545,1.217
				c0.033,0.024,0.068,0.045,0.101,0.069c0.317,0.226,0.637,0.448,0.964,0.66h-25.135c-4.312,0-7.805,3.495-7.805,7.805
				s3.494,7.805,7.805,7.805h157.083c0.887,0,1.735-0.155,2.529-0.427c0.794,0.273,1.642,0.427,2.529,0.427
				c0.384,0,0.697,0.312,0.697,0.696v8.953c0,0.384-0.313,0.697-0.697,0.697h-12.807h-16.684H167.041H150.358z M175.774,214.778
				c-0.126-0.693-0.24-1.38-0.34-2.06c-0.028-0.188-0.053-0.376-0.079-0.563c-0.091-0.659-0.171-1.312-0.237-1.959
				c-0.032-0.319-0.056-0.638-0.082-0.956c-0.044-0.513-0.087-1.027-0.114-1.531c-0.045-0.851-0.075-1.699-0.075-2.54v-5.022
				c0-0.007,0.001-0.014,0.001-0.02V160.96h24.648c-1.087,1.341-1.741,3.048-1.741,4.91v6.254c0,0.304,0.022,0.602,0.055,0.896
				v6.216c0,4.31,3.495,7.805,7.805,7.805s7.805-3.495,7.805-7.805v-6.254c0-0.304-0.022-0.602-0.055-0.896v-6.216
				c0-1.862-0.654-3.568-1.741-4.91h88.645c-1.088,1.341-1.741,3.048-1.741,4.91v6.254c0,0.304,0.022,0.602,0.055,0.896v6.216
				c0,4.31,3.495,7.805,7.805,7.805c2.155,0,4.107-0.874,5.519-2.286c0.591-0.591,1.081-1.281,1.459-2.038
				c0.524-1.049,0.827-2.229,0.827-3.482v-6.254c0-0.304-0.022-0.602-0.055-0.896v-6.216c0-1.862-0.654-3.568-1.741-4.91h24.759
				v39.167v4.849c0,0.852-0.03,1.711-0.076,2.573c-0.028,0.52-0.075,1.051-0.121,1.582c-0.026,0.315-0.049,0.629-0.081,0.945
				c-0.069,0.665-0.153,1.338-0.249,2.016c-0.025,0.183-0.05,0.366-0.077,0.551c-0.104,0.697-0.224,1.401-0.355,2.109
				c-4.038,21.691-20.592,44.713-40.133,56.913c-0.214,0.104-0.428,0.211-0.634,0.336c-5.526,3.355-11.07,5.737-16.475,7.079
				l-0.976,0.242c-9.486,2.355-16.201,3.719-22.451,3.719c-6.321,0-12.851-1.342-22.691-3.819
				c-5.357-1.349-10.845-3.718-16.312-7.043c-0.199-0.121-0.406-0.224-0.612-0.326C196.348,259.619,179.762,236.495,175.774,214.778
				z M192.994,372.288c-7.408-8.894-24.144-29.546-36.53-46.9l12.414-3.238c18.033,16.189,39.898,26.878,63.396,31.187
				L192.994,372.288z M191.704,320.098l17.034-9.126c1.843-0.988,3.214-2.674,3.804-4.68l4.705-16.017
				c3.864,1.744,7.8,3.164,11.781,4.166c10.795,2.717,18.592,4.292,26.501,4.292c0.001,0,0.001,0,0.002,0
				c7.844,0,15.551-1.533,26.212-4.179l0.976-0.242c4.051-1.005,8.057-2.441,11.988-4.213l4.757,16.195
				c0.59,2.006,1.961,3.692,3.804,4.68l17.036,9.125c-18.861,12.774-41.111,19.657-64.299,19.657
				C232.814,339.755,210.565,332.872,191.704,320.098z M319.008,372.288l-39.279-18.95c23.499-4.309,45.363-14.998,63.396-31.187
				l12.413,3.238C343.155,342.737,326.416,363.391,319.008,372.288z"/>
			<path d="M333.625,425.494c0-4.31-3.494-7.805-7.805-7.805h-17.324c-8.042,0-14.586,6.543-14.586,14.586v27.718
				c0,8.042,6.544,14.586,14.587,14.586h63.796c8.042,0,14.586-6.544,14.586-14.586v-27.718c0-8.043-6.543-14.587-14.586-14.587
				h-17.333c-4.312,0-7.805,3.495-7.805,7.805s3.494,7.805,7.805,7.805h16.31v25.67h-61.748v-25.67h16.299v0.001
				C330.132,433.299,333.625,429.804,333.625,425.494z"/>
		</g>
	</g>
</g>
<g>
</g>
<g>
</g>
<g>
</g>
<g>
</g>
<g>
</g>
<g>
</g>
<g>
</g>
<g>
</g>
<g>
</g>
<g>
</g>
<g>
</g>
<g>
</g>
<g>
</g>
<g>
</g>
<g>
</g>
</svg>
