<svg height="617pt" viewBox="-19 -60 617.33212 617" width="617pt" xmlns="http://www.w3.org/2000/svg"><path d="m433.398438 186.6875c3.074218 3.605469 8.46875 4.097656 12.144531 1.105469l69.730469-56.722657c3.734374-3.039062 4.300781-8.539062 1.261718-12.28125-3.046875-3.738281-8.546875-4.304687-12.285156-1.261718l-63.105469 51.339844-24.398437-28.574219c-2.019532-2.40625-5.171875-3.539063-8.253906-2.980469-3.089844.566406-5.640626 2.738281-6.675782 5.699219-1.042968 2.964843-.410156 6.253906 1.652344 8.621093zm0 0"/><path d="m15.15625 474.59375c.390625.378906.816406.722656 1.273438 1.023438 11.027343 11.492187 26.261718 17.992187 42.1875 17.988281h349.25c15.90625.003906 31.128906-6.476563 42.148437-17.945313 1.238281-.8125 2.242187-1.929687 2.925781-3.238281 8.765625-10.503906 13.5625-23.757813 13.550782-37.441406v-132.476563l10.054687-4.347656c61.917969-26.007812 102.203125-86.609375 102.203125-153.769531v-77.65625c0-3.222657-1.78125-6.1875-4.625-7.707031l-113.832031-60.660157c-2.601563-1.382812-5.71875-1.363281-8.300781.050781l-110.6875 60.660157c-2.796876 1.527343-4.535157 4.464843-4.535157 7.65625v75.84375h-278.152343c-29.457032.042969-54.324219 21.921875-58.121094 51.136719-.4687502 1.328124-.597656 2.75-.394532 4.144531-.0624995 1.109375-.101562 2.222656-.101562 3.347656v233.777344c-.015625 13.671875 4.773438 26.910156 13.53125 37.410156.417969.820313.96875 1.558594 1.625 2.203125zm339.074219-402.691406 102.011719-55.90625 105.042968 55.972656v72.417969c-.007812 60.148437-36.101562 114.421875-91.5625 137.695312l-.066406.03125-13.847656 5.984375-11.871094-5.175781c-54.4375-23.796875-89.640625-77.546875-89.707031-136.957031zm-295.613281 88.132812h278.773437c5.226563 61.039063 43.425781 114.324219 99.550781 138.882813l12.085938 5.269531v130.792969c.011718 6.890625-1.722656 13.671875-5.035156 19.714843l-104.941407-106.765624c-3.386719-3.410157-8.886719-3.445313-12.316406-.074219-3.425781 3.367187-3.484375 8.867187-.136719 12.3125l105.914063 107.769531c-7.105469 5.335938-15.757813 8.214844-24.644531 8.207031h-349.25c-8.910157.007813-17.578126-2.890625-24.695313-8.253906l105.332031-107.738281c2.234375-2.222656 3.097656-5.472656 2.261719-8.5-.835937-3.039063-3.238281-5.386719-6.289063-6.15625-3.054687-.765625-6.285156.171875-8.453124 2.445312l-104.3125 106.691406c-3.289063-6.027343-5.007813-12.785156-5.003907-19.652343v-219.570313l181.1875 153.421875c19.992188 17.015625 49.375 17.003907 69.351563-.03125l106.222656-90.089843c2.421875-2.007813 3.582031-5.160157 3.03125-8.253907s-2.722656-5.65625-5.6875-6.703125c-2.960938-1.046875-6.261719-.417968-8.632812 1.640625l-106.226563 90.089844c-13.472656 11.488281-33.296875 11.5-46.773437.019531l-191.683594-162.304687c3.839844-19.257813 20.734375-33.136719 40.371094-33.164063zm0 0"/></svg>